<svg width="119" height="24" viewBox="0 0 119 24" fill="none" xmlns="http://www.w3.org/2000/svg">
<path d="M7.03365 6H11.476L4.44231 18H0L7.03365 6Z" fill="#F54900"/>
<path d="M12.5102 6H18.4333L11.3996 18H5.47656L12.5102 6Z" fill="#FF6900"/>
<path d="M19.4672 6H27.6115L20.5778 18H12.4336L19.4672 6Z" fill="#FF8904"/>
<path d="M32.2938 19L38.7338 4.7H43.6738L50.1138 19H46.6338L45.2738 15.98H37.1338L35.7738 19H32.2938ZM38.2938 13.38H44.1138L41.3338 7.2H41.0738L38.2938 13.38ZM56.7764 19C55.6164 19 54.7631 18.7133 54.2164 18.14C53.6697 17.5533 53.3964 16.7867 53.3964 15.84V11H50.4164V8.7H53.3964V5.54H56.2964V8.7H60.5764V11H56.2964V15.48C56.2964 16.2933 56.6964 16.7 57.4964 16.7H61.1364V19H56.7764ZM62.6273 19V4.7H65.5273V8.7H71.6073C72.7807 8.7 73.634 8.99333 74.1673 9.58C74.714 10.1533 74.9873 10.9133 74.9873 11.86V19H72.0873V12.2C72.0873 11.4 71.6873 11 70.8873 11H65.5273V19H62.6273ZM77.0805 19V8.7H84.9605C86.1205 8.7 86.9738 8.99333 87.5205 9.58C88.0671 10.1533 88.3405 10.9133 88.3405 11.86V14H85.4005V12.22C85.4005 11.42 85.0005 11.02 84.2005 11.02H80.0205V19H77.0805ZM92.252 23.5V21.2H98.292C99.092 21.2 99.492 20.7933 99.492 19.98V19H93.312C92.1387 19 91.2787 18.7067 90.732 18.12C90.1987 17.5333 89.932 16.7733 89.932 15.84V8.7H92.832V15.5C92.832 16.3 93.232 16.7 94.032 16.7H99.392V8.7H102.392V20.34C102.392 21.2867 102.119 22.0467 101.572 22.62C101.025 23.2067 100.172 23.5 99.012 23.5H92.252ZM103.7 19L107.58 13.86L103.7 8.72H107.1L110.08 12.7H111.54L114.54 8.72H117.92L114.06 13.86L117.92 19H114.54L111.52 15H110.08L107.1 19H103.7Z" fill="white"/>
</svg>
